<svg width="350" height="250" viewBox="0 0 570 391" fill="none" xmlns="http://www.w3.org/2000/svg">
<rect width="570" height="391" rx="195.5" fill="#3963CD"/>
<path d="M374 195.5C375.657 195.5 377.003 196.843 376.973 198.5C376.395 230.778 366.5 262.236 348.434 289.114C329.809 316.823 303.337 338.42 272.365 351.174C241.393 363.927 207.312 367.264 174.432 360.762C141.552 354.261 111.35 338.213 87.6454 314.647C63.9404 291.082 47.7971 261.059 41.2569 228.373C34.7167 195.687 38.0734 161.807 50.9024 131.018C63.7315 100.228 85.4567 73.9124 113.331 55.3974C140.373 37.435 172.024 27.5977 204.5 27.0264C206.157 26.9972 207.5 28.3431 207.5 30L207.5 108.25C207.5 109.907 206.156 111.244 204.5 111.303C188.789 111.856 173.52 116.744 160.415 125.449C146.478 134.706 135.616 147.864 129.201 163.259C122.787 178.654 121.108 195.593 124.378 211.936C127.649 228.279 135.72 243.291 147.573 255.074C159.425 266.856 174.526 274.88 190.966 278.131C207.406 281.382 224.446 279.714 239.932 273.337C255.418 266.96 268.655 256.162 277.967 242.307C286.72 229.285 291.637 214.112 292.196 198.499C292.256 196.844 293.593 195.5 295.25 195.5H374Z" fill="white"/>
<path d="M362.5 361C362.5 362.657 363.843 364.003 365.5 363.974C397.976 363.402 429.627 353.565 456.669 335.603C484.543 317.088 506.269 290.772 519.098 259.982C531.927 229.193 535.283 195.313 528.743 162.627C522.203 129.941 506.06 99.9177 482.355 76.3525C458.65 52.7874 428.448 36.7393 395.568 30.2377C362.688 23.7361 328.607 27.0729 297.635 39.8263C266.663 52.5797 240.191 74.1767 221.566 101.886C203.5 128.764 193.605 160.222 193.027 192.5C192.997 194.157 194.343 195.5 196 195.5L274.75 195.5C276.407 195.5 277.744 194.156 277.804 192.501C278.363 176.888 283.28 161.715 292.033 148.693C301.345 134.838 314.582 124.04 330.068 117.663C345.554 111.286 362.594 109.618 379.034 112.869C395.474 116.12 410.575 124.144 422.427 135.926C434.28 147.709 442.351 162.721 445.622 179.064C448.892 195.407 447.213 212.346 440.799 227.741C434.384 243.136 423.522 256.294 409.585 265.551C396.48 274.256 381.211 279.144 365.499 279.697C363.844 279.756 362.5 281.093 362.5 282.75L362.5 361Z" fill="white"/>
</svg>
